<svg width="46.000000" height="40.000000" viewBox="0 0 46 40" fill="none" xmlns="http://www.w3.org/2000/svg" xmlns:xlink="http://www.w3.org/1999/xlink">
	<desc>
			Created with Pixso.
	</desc>
	<defs>
		<clipPath id="clip21_3133">
			<rect id="fluent:grid-24-filled" rx="0.000000" width="22.999998" height="23.000002" transform="translate(11.500000 33.000000) rotate(-90.000000)" fill="white" fill-opacity="0"/>
		</clipPath>
		<clipPath id="clip31_2979">
			<rect id="Elements/Toolbar Selector Buttons" rx="0.000000" width="45.000000" height="39.000000" transform="translate(0.500000 0.500000)" fill="white" fill-opacity="0"/>
		</clipPath>
	</defs>
	<rect id="Elements/Toolbar Selector Buttons" rx="0.000000" width="45.000000" height="39.000000" transform="translate(0.500000 0.500000)" fill="#FFFFFF" fill-opacity="1.000000"/>
	<g clip-path="url(#clip31_2979)">
		<rect id="fluent:grid-24-filled" rx="0.000000" width="22.999998" height="23.000002" transform="translate(11.500000 33.000000) rotate(-90.000000)" fill="#FFFFFF" fill-opacity="0"/>
		<g clip-path="url(#clip21_3133)">
			<path id="Vector" d="M14 13.75C14 13.15 14.23 12.58 14.65 12.15C15.08 11.73 15.65 11.5 16.25 11.5L29.75 11.5C30.34 11.5 30.91 11.73 31.34 12.15C31.76 12.58 32 13.15 32 13.75L32 17.25C32 17.84 31.76 18.41 31.34 18.84C30.91 19.26 30.34 19.5 29.75 19.5L26.25 19.5C26.21 19.5 26.18 19.5 26.15 19.49L19.84 19.49C19.81 19.5 19.78 19.5 19.75 19.5L16.25 19.5C15.65 19.5 15.08 19.26 14.65 18.84C14.23 18.41 14 17.84 14 17.25L14 13.75ZM16.25 29.5L29.75 29.5C30.34 29.5 30.91 29.26 31.34 28.84C31.76 28.41 32 27.84 32 27.25L32 23.75C32 23.15 31.76 22.58 31.34 22.15C30.91 21.73 30.34 21.5 29.75 21.5L26.25 21.5C26.21 21.5 26.18 21.5 26.15 21.5L19.84 21.5C19.81 21.5 19.78 21.5 19.75 21.5L16.25 21.5C15.65 21.5 15.08 21.73 14.65 22.15C14.23 22.58 14 23.15 14 23.75L14 27.25C14 27.84 14.23 28.41 14.65 28.84C15.08 29.26 15.65 29.5 16.25 29.5Z" fill="#6C7275" fill-opacity="1.000000" fill-rule="evenodd"/>
		</g>
	</g>
	<rect id="Elements/Toolbar Selector Buttons" rx="0.000000" width="45.000000" height="39.000000" transform="translate(0.500000 0.500000)" stroke="#E8ECEF" stroke-opacity="1.000000" stroke-width="1.000000"/>
</svg>
