<svg width="46.000000" height="40.000000" viewBox="0 0 46 40" fill="none" xmlns="http://www.w3.org/2000/svg" xmlns:xlink="http://www.w3.org/1999/xlink">
	<desc>
			Created with Pixso.
	</desc>
	<defs>
		<clipPath id="clip22_3106">
			<rect id="bi:grid-3x3-gap-fill" rx="0.000000" width="23.000000" height="23.000000" transform="translate(11.500000 8.500000)" fill="white" fill-opacity="0"/>
		</clipPath>
		<clipPath id="clip31_2897">
			<rect id="Elements/Toolbar Selector Buttons" rx="0.000000" width="45.000000" height="39.000000" transform="translate(0.500000 0.500000)" fill="white" fill-opacity="0"/>
		</clipPath>
	</defs>
	<rect id="Elements/Toolbar Selector Buttons" rx="0.000000" width="45.000000" height="39.000000" transform="translate(0.500000 0.500000)" fill="#F3F5F7" fill-opacity="1.000000"/>
	<g clip-path="url(#clip31_2897)">
		<rect id="bi:grid-3x3-gap-fill" rx="0.000000" width="23.000000" height="23.000000" transform="translate(11.500000 8.500000)" fill="#FFFFFF" fill-opacity="0"/>
		<g clip-path="url(#clip22_3106)">
			<path id="Vector" d="M12.5 11C12.5 10.6 12.65 10.22 12.93 9.93C13.22 9.65 13.6 9.5 14 9.5L17 9.5C17.39 9.5 17.77 9.65 18.06 9.93C18.34 10.22 18.5 10.6 18.5 11L18.5 14C18.5 14.39 18.34 14.77 18.06 15.06C17.77 15.34 17.39 15.5 17 15.5L14 15.5C13.6 15.5 13.22 15.34 12.93 15.06C12.65 14.77 12.5 14.39 12.5 14L12.5 11ZM20 11C20 10.6 20.15 10.22 20.43 9.93C20.72 9.65 21.1 9.5 21.5 9.5L24.5 9.5C24.89 9.5 25.27 9.65 25.56 9.93C25.84 10.22 26 10.6 26 11L26 14C26 14.39 25.84 14.77 25.56 15.06C25.27 15.34 24.89 15.5 24.5 15.5L21.5 15.5C21.1 15.5 20.72 15.34 20.43 15.06C20.15 14.77 20 14.39 20 14L20 11ZM27.5 11C27.5 10.6 27.65 10.22 27.93 9.93C28.22 9.65 28.6 9.5 29 9.5L32 9.5C32.39 9.5 32.77 9.65 33.06 9.93C33.34 10.22 33.5 10.6 33.5 11L33.5 14C33.5 14.39 33.34 14.77 33.06 15.06C32.77 15.34 32.39 15.5 32 15.5L29 15.5C28.6 15.5 28.22 15.34 27.93 15.06C27.65 14.77 27.5 14.39 27.5 14L27.5 11ZM12.5 18.5C12.5 18.1 12.65 17.72 12.93 17.43C13.22 17.15 13.6 17 14 17L17 17C17.39 17 17.77 17.15 18.06 17.43C18.34 17.72 18.5 18.1 18.5 18.5L18.5 21.5C18.5 21.89 18.34 22.27 18.06 22.56C17.77 22.84 17.39 23 17 23L14 23C13.6 23 13.22 22.84 12.93 22.56C12.65 22.27 12.5 21.89 12.5 21.5L12.5 18.5ZM20 18.5C20 18.1 20.15 17.72 20.43 17.43C20.72 17.15 21.1 17 21.5 17L24.5 17C24.89 17 25.27 17.15 25.56 17.43C25.84 17.72 26 18.1 26 18.5L26 21.5C26 21.89 25.84 22.27 25.56 22.56C25.27 22.84 24.89 23 24.5 23L21.5 23C21.1 23 20.72 22.84 20.43 22.56C20.15 22.27 20 21.89 20 21.5L20 18.5ZM27.5 18.5C27.5 18.1 27.65 17.72 27.93 17.43C28.22 17.15 28.6 17 29 17L32 17C32.39 17 32.77 17.15 33.06 17.43C33.34 17.72 33.5 18.1 33.5 18.5L33.5 21.5C33.5 21.89 33.34 22.27 33.06 22.56C32.77 22.84 32.39 23 32 23L29 23C28.6 23 28.22 22.84 27.93 22.56C27.65 22.27 27.5 21.89 27.5 21.5L27.5 18.5ZM12.5 26C12.5 25.6 12.65 25.22 12.93 24.93C13.22 24.65 13.6 24.5 14 24.5L17 24.5C17.39 24.5 17.77 24.65 18.06 24.93C18.34 25.22 18.5 25.6 18.5 26L18.5 29C18.5 29.39 18.34 29.77 18.06 30.06C17.77 30.34 17.39 30.5 17 30.5L14 30.5C13.6 30.5 13.22 30.34 12.93 30.06C12.65 29.77 12.5 29.39 12.5 29L12.5 26ZM20 26C20 25.6 20.15 25.22 20.43 24.93C20.72 24.65 21.1 24.5 21.5 24.5L24.5 24.5C24.89 24.5 25.27 24.65 25.56 24.93C25.84 25.22 26 25.6 26 26L26 29C26 29.39 25.84 29.77 25.56 30.06C25.27 30.34 24.89 30.5 24.5 30.5L21.5 30.5C21.1 30.5 20.72 30.34 20.43 30.06C20.15 29.77 20 29.39 20 29L20 26ZM27.5 26C27.5 25.6 27.65 25.22 27.93 24.93C28.22 24.65 28.6 24.5 29 24.5L32 24.5C32.39 24.5 32.77 24.65 33.06 24.93C33.34 25.22 33.5 25.6 33.5 26L33.5 29C33.5 29.39 33.34 29.77 33.06 30.06C32.77 30.34 32.39 30.5 32 30.5L29 30.5C28.6 30.5 28.22 30.34 27.93 30.06C27.65 29.77 27.5 29.39 27.5 29L27.5 26Z" fill="#141718" fill-opacity="1.000000" fill-rule="nonzero"/>
		</g>
	</g>
	<rect id="Elements/Toolbar Selector Buttons" rx="0.000000" width="45.000000" height="39.000000" transform="translate(0.500000 0.500000)" stroke="#E8ECEF" stroke-opacity="1.000000" stroke-width="1.000000"/>
</svg>
