<svg width="46.000000" height="40.000000" viewBox="0 0 46 40" fill="none" xmlns="http://www.w3.org/2000/svg" xmlns:xlink="http://www.w3.org/1999/xlink">
	<desc>
			Created with Pixso.
	</desc>
	<defs>
		<clipPath id="clip21_3119">
			<rect id="fluent:grid-24-filled" rx="0.000000" width="23.000000" height="23.000000" transform="translate(11.500000 8.500000)" fill="white" fill-opacity="0"/>
		</clipPath>
		<clipPath id="clip31_2976">
			<rect id="Elements/Toolbar Selector Buttons" rx="0.000000" width="45.000000" height="39.000000" transform="translate(0.500000 0.500000)" fill="white" fill-opacity="0"/>
		</clipPath>
	</defs>
	<rect id="Elements/Toolbar Selector Buttons" rx="0.000000" width="45.000000" height="39.000000" transform="translate(0.500000 0.500000)" fill="#FFFFFF" fill-opacity="1.000000"/>
	<g clip-path="url(#clip31_2976)">
		<rect id="fluent:grid-24-filled" rx="0.000000" width="23.000000" height="23.000000" transform="translate(11.500000 8.500000)" fill="#FFFFFF" fill-opacity="0"/>
		<g clip-path="url(#clip21_3119)">
			<path id="Vector" d="M19.75 11C20.34 11 20.91 11.23 21.34 11.65C21.76 12.08 22 12.65 22 13.25L22 16.75C22 16.78 21.99 16.81 21.99 16.84L21.99 23.15C21.99 23.18 22 23.21 22 23.25L22 26.75C22 27.34 21.76 27.91 21.34 28.34C20.91 28.76 20.34 29 19.75 29L16.25 29C15.65 29 15.08 28.76 14.65 28.34C14.23 27.91 14 27.34 14 26.75L14 13.25C14 12.65 14.23 12.08 14.65 11.65C15.08 11.23 15.65 11 16.25 11L19.75 11ZM29.75 11C30.34 11 30.91 11.23 31.34 11.65C31.76 12.08 32 12.65 32 13.25L32 26.75C32 27.34 31.76 27.91 31.34 28.34C30.91 28.76 30.34 29 29.75 29L26.25 29C25.65 29 25.08 28.76 24.65 28.34C24.23 27.91 24 27.34 24 26.75L24 23.25C24 23.21 24 23.18 24 23.15L24 16.84C24 16.81 24 16.78 24 16.75L24 13.25C24 12.65 24.23 12.08 24.65 11.65C25.08 11.23 25.65 11 26.25 11L29.75 11Z" fill="#6C7275" fill-opacity="1.000000" fill-rule="evenodd"/>
		</g>
	</g>
	<rect id="Elements/Toolbar Selector Buttons" rx="0.000000" width="45.000000" height="39.000000" transform="translate(0.500000 0.500000)" stroke="#E8ECEF" stroke-opacity="1.000000" stroke-width="1.000000"/>
</svg>
