<svg width="24.000000" height="24.000000" viewBox="0 0 24 24" fill="none" xmlns="http://www.w3.org/2000/svg" xmlns:xlink="http://www.w3.org/1999/xlink">
	<desc>
			Created with Pixso.
	</desc>
	<defs/>
	<path id="Union" d="M19.8613 4.20898L19.8613 4.20898Q20.1072 4.26367 20.3431 4.36328Q20.5789 4.46289 20.7887 4.60156Q21.0183 4.75391 21.217 4.95117Q21.4157 5.15039 21.5675 5.38086Q21.7063 5.58984 21.806 5.82617Q21.9058 6.0625 21.9596 6.30664Q22.0152 6.5625 22.0216 6.82617C22.0261 6.87305 22.0264 6.91797 22.0225 6.96289L22.0225 16.8965Q22.0225 17.1973 21.9596 17.4863Q21.9058 17.7305 21.806 17.9668Q21.7063 18.2031 21.5675 18.4121Q21.4157 18.6426 21.217 18.8418Q21.0183 19.0391 20.7887 19.1914L20.7886 19.1914Q20.5788 19.3301 20.3431 19.4297Q20.1072 19.5293 19.8613 19.584Q19.5737 19.6465 19.2725 19.6465L5.27246 19.6465Q4.97119 19.6465 4.68365 19.584Q4.4377 19.5293 4.20181 19.4297Q3.96606 19.3301 3.7562 19.1914Q3.52658 19.0391 3.32791 18.8418Q3.12926 18.6426 2.9774 18.4121L2.97739 18.4121Q2.83859 18.2031 2.73888 17.9668Q2.63911 17.7305 2.58534 17.4863Q2.52246 17.1973 2.52246 16.8965L2.52246 6.96289C2.51855 6.91797 2.5188 6.87305 2.5233 6.82617Q2.52974 6.5625 2.58534 6.30859L2.58534 6.30859L2.58534 6.30859Q2.63911 6.0625 2.73888 5.82617Q2.83859 5.58984 2.9774 5.38086L2.9774 5.38086Q3.12927 5.15039 3.32791 4.95117Q3.52658 4.75391 3.7562 4.60156L3.7562 4.60156Q3.96606 4.46289 4.20181 4.36328Q4.43768 4.26367 4.68359 4.20898L4.68361 4.20898Q4.97116 4.14648 5.27246 4.14648L19.2725 4.14648Q19.5737 4.14648 19.8613 4.20898ZM4.02246 8.29883L11.8564 13.5215Q12.0454 13.6465 12.2725 13.6465Q12.4995 13.6465 12.6885 13.5215L20.5225 8.29883L20.5225 16.8965Q20.5225 17.0449 20.4889 17.1875L20.4889 17.1875Q20.4651 17.2871 20.4245 17.3828Q20.3818 17.4844 20.3232 17.5742L20.3231 17.5742Q20.2516 17.6855 20.1563 17.7812Q20.0611 17.875 19.9505 17.9473Q19.8598 18.0059 19.7588 18.0488Q19.6629 18.0898 19.563 18.1133L19.563 18.1133Q19.4217 18.1465 19.2725 18.1465L5.27246 18.1465Q5.1232 18.1465 4.98192 18.1133L4.9819 18.1133Q4.88202 18.0898 4.78613 18.0488Q4.68512 18.0059 4.59441 17.9473L4.59438 17.9473Q4.48381 17.875 4.38858 17.7812Q4.29335 17.6855 4.22182 17.5742L4.2218 17.5742Q4.16312 17.4844 4.12039 17.3828Q4.07983 17.2871 4.05606 17.1875L4.05606 17.1875Q4.02246 17.0449 4.02246 16.8965L4.02246 8.29883ZM20.4685 6.53125Q20.4498 6.4707 20.4245 6.41016Q20.3818 6.30859 20.3232 6.21875L20.3231 6.21875Q20.2516 6.10742 20.1563 6.01172Q20.0611 5.91797 19.9505 5.8457Q19.8598 5.78711 19.7588 5.74414Q19.6629 5.70312 19.5631 5.67969L19.563 5.67969Q19.4218 5.64648 19.2725 5.64648L5.27246 5.64648Q5.12318 5.64648 4.9819 5.67969Q4.88202 5.70312 4.78613 5.74414Q4.6851 5.78711 4.59439 5.8457Q4.48381 5.91797 4.38858 6.01172Q4.29335 6.10742 4.22182 6.21875L4.22182 6.21875Q4.16312 6.30859 4.12039 6.41016Q4.09514 6.4707 4.07642 6.53125L12.2725 11.9941L20.4685 6.53125Z" clip-rule="evenodd" fill="#141718" fill-opacity="1.000000" fill-rule="evenodd"/>
</svg>
