<svg width="19.500000" height="17.500000" viewBox="0 0 19.5 17.5" fill="none" xmlns="http://www.w3.org/2000/svg" xmlns:xlink="http://www.w3.org/1999/xlink">
	<desc>
			Created with Pixso.
	</desc>
	<defs/>
	<path id="Vector" d="M0.75 3.75L3.75 3.75M0.75 13.75L6.75 13.75M15.75 13.75L18.75 13.75M12.75 3.75L18.75 3.75M12.75 16.75C11.09 16.75 9.75 15.4 9.75 13.75C9.75 12.09 11.09 10.75 12.75 10.75C14.4 10.75 15.75 12.09 15.75 13.75C15.75 15.4 14.4 16.75 12.75 16.75ZM6.75 6.75C5.09 6.75 3.75 5.4 3.75 3.75C3.75 2.09 5.09 0.75 6.75 0.75C8.4 0.75 9.75 2.09 9.75 3.75C9.75 5.4 8.4 6.75 6.75 6.75Z" stroke="#141718" stroke-opacity="1.000000" stroke-width="1.500000" stroke-linecap="round"/>
</svg>
