<svg width="14.833496" height="13.500000" viewBox="0 0 14.8335 13.5" fill="none" xmlns="http://www.w3.org/2000/svg" xmlns:xlink="http://www.w3.org/1999/xlink">
	<desc>
			Created with Pixso.
	</desc>
	<defs/>
	<path id="Vector" d="M0.75 10.08L0.75 9.41C0.75 9.04 1.05 8.76 1.4 8.64C2.18 8.36 2.75 7.62 2.75 6.75C2.75 5.87 2.18 5.13 1.4 4.85C1.05 4.73 0.75 4.45 0.75 4.08L0.75 3.41C0.75 1.94 1.94 0.75 3.41 0.75L11.41 0.75C12.88 0.75 14.08 1.94 14.08 3.41L14.08 4.08C14.08 4.45 13.77 4.73 13.42 4.85C12.64 5.13 12.08 5.87 12.08 6.75C12.08 7.62 12.64 8.36 13.42 8.64C13.77 8.76 14.08 9.04 14.08 9.41L14.08 10.08C14.08 11.55 12.88 12.75 11.41 12.75L3.41 12.75C1.94 12.75 0.75 11.55 0.75 10.08ZM5.41 5.41C5.04 5.41 4.75 5.11 4.75 4.75C4.75 4.38 5.04 4.08 5.41 4.08C5.78 4.08 6.08 4.38 6.08 4.75C6.08 5.11 5.78 5.41 5.41 5.41ZM9.41 9.41C9.04 9.41 8.75 9.11 8.75 8.75C8.75 8.38 9.04 8.08 9.41 8.08C9.78 8.08 10.08 8.38 10.08 8.75C10.08 9.11 9.78 9.41 9.41 9.41ZM9.41 4.75L5.41 8.75" stroke="#141718" stroke-opacity="1.000000" stroke-width="1.500000" stroke-linecap="round"/>
</svg>
